<svg xmlns="http://www.w3.org/2000/svg" width="1000" height="300" viewBox="0 0 1000 300" role="img" aria-label="Spinifex: the open, AWS-compatible cloud you run yourself. EC2, EBS, S3, VPC, IAM on your infrastructure, at the edge, or on a Neocloud.">
<defs><radialGradient id="glow" cx="0.85" cy="0.15" r="0.7"><stop offset="0" stop-color="#EE4B12" stop-opacity="0.16"/><stop offset="1" stop-color="#EE4B12" stop-opacity="0"/></radialGradient><linearGradient id="rule" x1="0" y1="0" x2="1" y2="0"><stop offset="0" stop-color="#EE4B12" stop-opacity="0.7"/><stop offset="1" stop-color="#EE4B12" stop-opacity="0"/></linearGradient><linearGradient id="band" x1="0" y1="0" x2="1" y2="0"><stop offset="0" stop-color="#F5652E"/><stop offset="1" stop-color="#C63C0E"/></linearGradient></defs>
<rect x="0.0" y="0.0" width="1000.0" height="300.0" rx="22" fill="#14181D" fill-opacity="1.0" stroke="#2A2F36" stroke-width="1" stroke-opacity="1.0"/>
<rect x="0.0" y="0.0" width="1000.0" height="300.0" rx="22" fill="url(#glow)" fill-opacity="1.0" stroke="none" stroke-width="1" stroke-opacity="1.0"/>
<g transform="translate(52.0,30.0) scale(0.0748)" opacity="0.9"><g id="Group" fill="#F5F3EE">
            <g transform="translate(280.8574, 103.3772)">
                <path d="M28.4697767,0.86742637 L47.3283633,62.8415239 L66.1869499,0.86742637 L94.6449913,0.86742637 L94.6449913,86.6957491 L76.1032571,86.6957491 L76.1032571,45.4109426 C76.1032571,42.6914438 76.6430798,24.3934362 76.7604325,21.2285021 L56.4818776,86.6840271 L38.1631137,86.6840271 L17.8845588,21.2285021 C17.9901763,23.948001 18.5417342,42.6797218 18.5417342,45.4109426 L18.5417342,86.6957491 L0,86.6957491 L0,0.86742637 L28.4580414,0.86742637 L28.4697767,0.86742637 Z" id="Path"></path>
                <path d="M128.52473,0.86742637 L128.52473,56.8515931 C128.52473,67.3075975 131.575901,69.698881 149.46046,69.698881 C167.345019,69.698881 170.067602,67.0966019 170.067602,56.8515931 L170.067602,0.86742637 L189.583364,0.86742637 L189.583364,58.5981679 C189.583364,81.0340337 177.589914,87.5631754 148.920637,87.5631754 C120.251361,87.5631754 108.90335,79.9321678 108.90335,58.5981679 L108.90335,0.86742637 L128.536465,0.86742637 L128.52473,0.86742637 Z" id="Path"></path>
                <polygon id="Path" points="223.240133 0.86742637 223.240133 68.8314546 269.031175 68.8314546 269.031175 86.6840271 203.712635 86.6840271 203.712635 0.855704392 223.228397 0.855704392"></polygon>
                <path d="M340.205617,30.6060845 C340.639822,17.9697922 333.997656,17.8642944 318.835681,17.8642944 C298.228539,17.8642944 296.702953,18.4035054 296.702953,46.6183064 C296.702953,64.6935964 296.820306,69.698881 317.967271,69.698881 C335.417624,69.698881 341.19138,69.698881 340.862792,54.4603096 L317.849918,54.4603096 L317.849918,38.6708053 L360.261201,38.6708053 C360.155584,63.9316678 360.155584,66.3346733 357.538617,72.9693129 C351.87048,87.5748974 334.314509,87.5748974 320.032679,87.5748974 C299.096949,87.5748974 289.391877,86.3675337 283.289534,77.2361128 C278.161219,69.3941096 277.175456,62.3023129 277.175456,43.5705921 C277.175456,20.3727977 279.358217,12.6480142 285.789147,7.19729447 C292.666018,1.41835933 300.18833,0 316.42995,0 C342.388378,0 359.932614,0.984646149 359.826996,30.6060845 L340.193881,30.6060845 L340.205617,30.6060845 Z" id="Path"></path>
                <path d="M459.130891,86.6957491 L437.103781,86.6957491 L430.67285,68.8431766 L396.546671,68.8431766 L390.11574,86.6957491 L368.08863,86.6957491 L400.806576,0.86742637 L426.319063,0.86742637 L459.142627,86.6957491 L459.130891,86.6957491 Z M413.551084,19.8218647 L401.768868,51.9518064 L425.321565,51.9518064 L413.539349,19.8218647 L413.551084,19.8218647 Z" id="Shape" fill-rule="nonzero"></path>
            </g>
            <path d="M173.561756,108.92169 C157.801282,125.707562 134.577173,137.300599 115.976762,151.050479 C105.508897,158.786984 78.0952952,178.878454 96.2262947,192.018792 C118.159523,207.925516 172.810698,194.02325 191.704491,176.604391 C202.008062,167.097867 201.691209,154.274023 187.691027,148.917079 C172.540787,143.126422 155.066963,147.545607 139.705488,149.983779 C139.189136,150.065833 138.08602,150.651931 138.203373,149.725895 C144.610833,145.611481 150.372853,140.559308 156.639489,136.233899 C162.671421,132.072596 170.088114,126.117832 177.469602,125.977168 C200.4238,125.555177 224.070378,136.866885 230.055369,160.463227 C240.006882,199.696687 193.19487,230.466879 159.127368,233.25671 L178.924776,224.090123 C186.34147,219.68266 193.852046,215.099366 200.412064,209.449373 C202.043268,208.042736 203.22853,206.225829 204.613293,204.877802 C204.941881,204.561308 208.309904,203.107783 206.373584,203.025729 C188.70026,214.607043 168.022706,222.296661 147.345152,226.704124 C140.245311,228.21626 132.699529,229.669785 125.458864,229.845615 C125.634893,230.830261 126.526774,230.630987 127.18395,230.841983 C133.016381,232.717499 139.693753,233.831087 145.772625,234.757123 C146.617565,235.39011 145.702213,235.659716 145.033303,235.741769 C139.541194,236.445088 133.720498,237.488344 128.228389,237.769672 C112.655679,238.555044 96.965617,236.937411 81.9092595,233.116046 L73.4481263,209.156323 C72.7205393,209.226655 72.6735982,209.883086 72.4858338,210.410575 C71.7465115,212.508809 68.7305459,227.782546 67.7330475,227.993542 C59.6474432,225.543649 52.3950433,220.069485 46.4569943,214.126442 L60.5510593,188.900746 L38.0428023,201.279154 C34.8742781,194.14047 34.2992496,186.052305 35.3554243,178.362687 L64.4706411,163.909489 C55.411009,163.311668 46.2574946,164.741749 37.2448036,165.679507 C38.7703893,161.272043 40.636298,156.899746 42.9129413,152.808775 C43.7461458,151.320084 48.1351386,143.970404 49.2969308,143.935238 C59.8352076,145.951418 71.1949536,146.889176 81.7684362,144.849552 L58.8377092,135.401638 L58.0045047,134.264606 C62.6868793,129.857143 67.4396656,125.473123 72.708804,121.72209 C82.5781701,124.582252 92.7174476,126.891482 103.044489,127.020424 L83.2353455,114.442741 C85.4650477,112.684445 87.8003674,111.066812 90.1943635,109.531233 C92.1658897,108.265259 97.6697335,104.608002 99.6647303,104.865885 C107.632982,107.573662 115.906351,109.507789 124.308807,110.175942 C120.459637,106.202191 113.172032,103.259974 109.47542,99.5441075 C109.076421,99.1338383 108.759568,99.1103943 108.947333,98.3484657 C118.593729,92.8156921 129.331505,87.3180845 137.64008,79.7691307 C146.124683,72.0677911 155.078698,59.4783868 148.976355,47.8501846 C156.005785,50.0773605 162.061186,58.9508978 161.908628,66.3709098 C161.486158,86.9078152 139.564665,105.217545 125.810923,118.088277 C147.05177,109.179573 171.355524,90.776068 171.308583,65.3628197 C171.273377,44.6852506 152.414791,36.3978122 134.600643,34.5105737 C133.849586,39.0587012 132.241853,43.8647121 129.871328,47.8267407 C124.62566,56.6299461 113.911354,62.1275538 108.313628,71.2941406 C104.499663,77.5419548 103.772076,85.9348911 95.6747368,88.3261746 C92.3653893,89.2990987 88.1172198,89.4514845 84.6787843,89.4632064 L92.224566,85.4894559 C100.673964,79.2885296 100.521405,68.0940406 105.696662,59.7597143 C105.098162,58.9157318 99.0192901,57.3098209 97.5993219,56.9581615 C91.3444204,55.4225824 80.7474673,53.4650121 74.4808305,53.8870033 C72.5445102,54.0159451 63.8134657,55.3756945 63.0741434,56.8643857 C61.9944981,59.0212296 67.2636365,68.2464263 68.8126928,70.3446604 C69.1295452,70.7666516 69.7632501,70.6611538 69.7867206,70.7080417 C70.0801025,71.094867 69.8806028,71.9974593 69.0591336,71.6809659 C68.4606345,71.4582483 64.9048463,68.8442472 64.1068476,68.2229824 C57.934093,63.4755813 50.8811929,56.2900088 45.717672,50.4876297 C44.8727322,48.4597275 43.7461458,46.1973858 45.7411425,44.5211429 C56.6314775,37.7927275 67.4161951,30.7360968 78.4825592,24.3007309 C111.247446,5.21735077 148.530415,-16.3510887 179.875334,18.6155716 C205.857232,47.6040231 198.440538,82.4651856 173.596962,108.92169 L173.561756,108.92169 Z M72.6970688,43.0090077 C81.2755546,41.5203165 97.4467633,50.0187506 100.110671,37.4293462 C100.368847,36.1985385 99.6647303,35.4952199 100.357111,34.2995781 C100.873464,33.4087078 103.854223,31.2401419 104.898663,30.4078814 C108.20801,27.7469924 111.975034,25.6604803 115.225705,22.9175375 C102.610284,24.9454397 89.9009816,32.1661781 78.8815586,38.5546561 C77.0508557,39.6096341 75.0793295,40.723222 73.3425089,41.9071418 C72.8965684,42.2119132 72.4271574,41.8368099 72.6970688,43.0090077 L72.6970688,43.0090077 Z M13.4808721,175.854184 C-7.56047564,198.899593 -2.77248352,231.826629 19.5362739,252.011875 C41.7511491,272.103345 76.6870622,279.230308 105.966573,277.835392 C132.359206,276.569419 159.162574,267.883433 185.191413,276.710082 C195.30722,280.144622 204.143882,286.568266 211.677928,294 C210.668695,289.088491 207.711405,283.965987 204.836263,279.804685 C178.701806,241.884086 127.946743,256.102845 89.2438062,248.530447 C68.2493996,244.427755 46.4217885,234.839177 33.6420742,217.080381 C22.5991806,201.736311 20.8740952,183.637577 26.3427333,165.714673 C25.2278822,164.601085 14.6661348,174.541323 13.4808721,175.854184 Z M91.5439201,69.6882296 C86.8498102,73.8378098 81.8857889,77.7646724 76.6753269,81.2929878 L61.8771454,88.5137262 C74.4104189,88.9943273 87.3778975,81.8321988 91.5439201,69.6882296 Z" id="Shape" fill-rule="nonzero"></path>
        </g></g>
<text x="50.0" y="132.0" font-family="-apple-system, BlinkMacSystemFont, 'Segoe UI', Roboto, system-ui, sans-serif" font-size="56" fill="#F5F3EE" font-weight="800" text-anchor="start">Spinifex</text>
<text x="52.0" y="166.0" font-family="-apple-system, BlinkMacSystemFont, 'Segoe UI', Roboto, system-ui, sans-serif" font-size="17.5" fill="#5B636C" font-weight="400"><tspan fill="#F5F3EE" font-weight="500">The open, AWS-compatible cloud </tspan><tspan fill="#EE4B12" font-weight="600">you run yourself.</tspan></text>
<text x="52.0" y="193.0" font-family="-apple-system, BlinkMacSystemFont, 'Segoe UI', Roboto, system-ui, sans-serif" font-size="14" fill="#5B636C" font-weight="400"><tspan fill="#9AA1A8" font-weight="500">On your infrastructure. </tspan><tspan fill="#F5B500" font-weight="500">At the edge. </tspan><tspan fill="#EE4B12" font-weight="500">Or on a Neocloud.</tspan></text>
<rect x="52.0" y="221.0" width="43.6" height="26.0" rx="7" fill="#EE4B12" fill-opacity="0.06" stroke="#EE4B12" stroke-width="1" stroke-opacity="0.5"/><text x="73.8" y="238.2" font-family="ui-monospace, 'SFMono-Regular', Menlo, Consolas, monospace" font-size="12" fill="#F3F1EC" font-weight="400" text-anchor="middle" fill-opacity="0.92">EC2</text>
<rect x="103.6" y="221.0" width="43.6" height="26.0" rx="7" fill="#EE4B12" fill-opacity="0.06" stroke="#EE4B12" stroke-width="1" stroke-opacity="0.5"/><text x="125.4" y="238.2" font-family="ui-monospace, 'SFMono-Regular', Menlo, Consolas, monospace" font-size="12" fill="#F3F1EC" font-weight="400" text-anchor="middle" fill-opacity="0.92">EBS</text>
<rect x="155.2" y="221.0" width="36.4" height="26.0" rx="7" fill="#EE4B12" fill-opacity="0.06" stroke="#EE4B12" stroke-width="1" stroke-opacity="0.5"/><text x="173.4" y="238.2" font-family="ui-monospace, 'SFMono-Regular', Menlo, Consolas, monospace" font-size="12" fill="#F3F1EC" font-weight="400" text-anchor="middle" fill-opacity="0.92">S3</text>
<rect x="199.6" y="221.0" width="43.6" height="26.0" rx="7" fill="#EE4B12" fill-opacity="0.06" stroke="#EE4B12" stroke-width="1" stroke-opacity="0.5"/><text x="221.4" y="238.2" font-family="ui-monospace, 'SFMono-Regular', Menlo, Consolas, monospace" font-size="12" fill="#F3F1EC" font-weight="400" text-anchor="middle" fill-opacity="0.92">VPC</text>
<rect x="251.2" y="221.0" width="43.6" height="26.0" rx="7" fill="#EE4B12" fill-opacity="0.06" stroke="#EE4B12" stroke-width="1" stroke-opacity="0.5"/><text x="273.0" y="238.2" font-family="ui-monospace, 'SFMono-Regular', Menlo, Consolas, monospace" font-size="12" fill="#F3F1EC" font-weight="400" text-anchor="middle" fill-opacity="0.92">IAM</text>
<text x="628.0" y="58.0" font-family="ui-monospace, 'SFMono-Regular', Menlo, Consolas, monospace" font-size="10.5" fill="#9AA1A8" font-weight="600" text-anchor="start" letter-spacing="2">ONE PORTABLE STACK</text>
<rect x="628.0" y="70.0" width="320.0" height="40.0" rx="9" fill="#181D23" fill-opacity="1.0" stroke="#2A2F36" stroke-width="1" stroke-opacity="1.0"/>
<text x="644.0" y="94.5" font-family="-apple-system, BlinkMacSystemFont, 'Segoe UI', Roboto, system-ui, sans-serif" font-size="13" fill="#F3F1EC" font-weight="600" text-anchor="start">Apps + AWS tooling</text>
<text x="934.0" y="93.7" font-family="ui-monospace, 'SFMono-Regular', Menlo, Consolas, monospace" font-size="10.5" fill="#9AA1A8" font-weight="400" text-anchor="end">CLI · SDKs · Terraform</text>
<rect x="628.0" y="118.0" width="320.0" height="40.0" rx="9" fill="url(#band)" fill-opacity="1.0" stroke="none" stroke-width="1" stroke-opacity="1.0"/>
<rect x="628.0" y="118.0" width="320.0" height="40.0" rx="9" fill="none" fill-opacity="1.0" stroke="#EE4B12" stroke-width="1" stroke-opacity="0.5"/>
<text x="644.0" y="142.9" font-family="-apple-system, BlinkMacSystemFont, 'Segoe UI', Roboto, system-ui, sans-serif" font-size="14" fill="#F5F3EE" font-weight="800" text-anchor="start">Spinifex</text>
<text x="934.0" y="141.8" font-family="ui-monospace, 'SFMono-Regular', Menlo, Consolas, monospace" font-size="11" fill="#F5F3EE" font-weight="400" text-anchor="end" fill-opacity="0.92">EC2 EBS S3 VPC IAM</text>
<rect x="628.0" y="166.0" width="320.0" height="40.0" rx="9" fill="#181D23" fill-opacity="1.0" stroke="#2A2F36" stroke-width="1" stroke-opacity="1.0"/>
<text x="644.0" y="190.6" font-family="-apple-system, BlinkMacSystemFont, 'Segoe UI', Roboto, system-ui, sans-serif" font-size="13" fill="#F3F1EC" font-weight="600" text-anchor="start">Linux</text>
<text x="934.0" y="189.7" font-family="ui-monospace, 'SFMono-Regular', Menlo, Consolas, monospace" font-size="10.5" fill="#9AA1A8" font-weight="400" text-anchor="end">KVM · OVS</text>
<rect x="628.0" y="214.0" width="320.0" height="40.0" rx="9" fill="#181D23" fill-opacity="1.0" stroke="#2A2F36" stroke-width="1" stroke-opacity="1.0"/>
<text x="644.0" y="238.6" font-family="-apple-system, BlinkMacSystemFont, 'Segoe UI', Roboto, system-ui, sans-serif" font-size="13" fill="#F3F1EC" font-weight="600" text-anchor="start">Hardware</text>
<text x="934.0" y="237.7" font-family="ui-monospace, 'SFMono-Regular', Menlo, Consolas, monospace" font-size="10.5" fill="#9AA1A8" font-weight="400" text-anchor="end">CPU · GPU</text>
</svg>